<?xml version="1.0" encoding="UTF-8" standalone="no"?>
<!-- Created with Inkscape (http://www.inkscape.org/) -->

<svg
   width="210mm"
   height="297mm"
   viewBox="0 0 210 297"
   version="1.1"
   id="svg1"
   inkscape:version="1.4 (86a8ad7, 2024-10-11)"
   sodipodi:docname="logo.svg"
   xmlns:inkscape="http://www.inkscape.org/namespaces/inkscape"
   xmlns:sodipodi="http://sodipodi.sourceforge.net/DTD/sodipodi-0.dtd"
   xmlns="http://www.w3.org/2000/svg"
   xmlns:svg="http://www.w3.org/2000/svg">
  <sodipodi:namedview
     id="namedview1"
     pagecolor="#ffffff"
     bordercolor="#000000"
     borderopacity="0.25"
     inkscape:showpageshadow="2"
     inkscape:pageopacity="0.0"
     inkscape:pagecheckerboard="0"
     inkscape:deskcolor="#d1d1d1"
     inkscape:document-units="mm"
     inkscape:zoom="0.68862934"
     inkscape:cx="371.02689"
     inkscape:cy="325.28385"
     inkscape:window-width="1920"
     inkscape:window-height="991"
     inkscape:window-x="-9"
     inkscape:window-y="-9"
     inkscape:window-maximized="1"
     inkscape:current-layer="layer1"
     inkscape:rotation="90" />
  <defs
     id="defs1">
    <inkscape:perspective
       sodipodi:type="inkscape:persp3d"
       inkscape:vp_x="0 : 148.5 : 1"
       inkscape:vp_y="0 : 1000 : 0"
       inkscape:vp_z="210 : 148.5 : 1"
       inkscape:persp3d-origin="105 : 99 : 1"
       id="perspective19" />
  </defs>
  <g
     inkscape:label="Layer 1"
     inkscape:groupmode="layer"
     id="layer1">
    <path
       id="text6"
       style="font-style:normal;font-variant:normal;font-weight:normal;font-stretch:normal;font-size:70.5556px;font-family:Arial;-inkscape-font-specification:Arial;text-align:center;writing-mode:lr-tb;direction:ltr;text-anchor:middle;fill:#000000;stroke-width:0;stroke-dasharray:none"
       d="m 6.3861381,205.74079 c -0.4495512,1.42733 1.2648154,0.72381 2.100175,0.88477 5.8118269,0.0249 11.7023479,-0.20522 17.4428409,0.20236 1.955383,4.27104 0.835951,9.08886 1.764412,13.57093 1.797603,15.95767 6.73603,31.94412 16.536239,44.96838 4.902511,6.50124 11.125235,12.20698 18.681418,15.58245 12.934116,5.95059 28.478726,5.75093 41.474537,0.0812 10.87632,-5.06958 19.09426,-14.43955 24.74049,-24.7028 8.14107,-14.89863 11.22666,-31.96473 11.56841,-48.73183 -0.44407,-1.53628 1.05088,-1.10737 2.08672,-1.14378 6.15552,-0.008 12.31101,-0.0151 18.46655,-0.0225 -0.005,-5.22839 -0.0104,-10.45673 -0.0159,-15.68512 -6.80749,0.009 -13.61496,0.0166 -20.42244,0.0249 -0.66137,-14.79511 -2.58659,-29.82118 -8.5522,-43.54293 -5.45666,-12.40827 -14.60747,-23.66287 -27.00613,-29.88887 -10.712153,-5.44798 -23.56807,-6.62076 -35.106309,-3.13975 -9.068951,2.60445 -17.217383,7.96799 -23.313877,15.03882 -10.231928,11.66371 -15.834233,26.60838 -18.320511,41.65624 -0.959625,5.843 -1.47398,11.7597 -1.62487,17.67347 0.17414,0.97768 -0.129976,2.69444 -1.499671,2.34396 -6.340526,0.008 -12.681048,0.0155 -19.0215758,0.0232 0.00634,4.93559 0.014587,9.87116 0.021641,14.80677 z M 38.197966,188.35195 c 0.565054,-12.96253 3.039102,-26.49488 9.701047,-37.80556 4.704497,-8.03016 12.094181,-14.68481 21.065742,-17.76493 6.883882,-2.48053 14.504156,-3.09803 21.602235,-2.02945 5.389133,0.78269 10.75212,2.56108 15.26624,5.49363 8.51774,5.40431 14.60677,13.95852 18.07987,23.27929 3.82077,10.02833 4.92609,20.75135 5.40963,31.3212 -30.406293,-0.0525 -60.812638,-0.003 -91.218947,0.0196 0.03139,-0.83794 0.06279,-1.67587 0.09419,-2.51381 z m 0.118478,18.22816 c 30.285098,-0.0369 60.570206,-0.0739 90.855296,-0.11088 -0.20283,9.88897 -1.40081,19.72072 -4.63665,29.18668 -3.34479,9.67777 -8.95721,19.03515 -17.72095,24.86102 -7.651939,5.08238 -17.155034,7.24563 -26.208869,6.61587 -5.997727,-0.43914 -11.94158,-1.86961 -17.103845,-4.85631 -8.121796,-4.67293 -14.13394,-11.911 -18.093436,-20.25294 -5.041984,-10.98787 -6.872969,-23.36404 -7.131559,-35.44004 z" />
    <path
       id="text7"
       style="font-style:normal;font-variant:normal;font-weight:normal;font-stretch:normal;font-size:70.5556px;font-family:Arial;-inkscape-font-specification:Arial;text-align:center;writing-mode:lr-tb;direction:ltr;text-anchor:middle;fill:#000000;stroke-width:0;stroke-dasharray:none"
       d="m 17.880311,90.779009 c 0.32172,14.952591 3.442591,29.856421 9.379817,43.638781 1.705969,-1.28478 2.194219,-3.39756 3.171091,-5.17349 1.07114,-2.22841 2.14428,-4.45596 3.214153,-6.68497 C 26.741133,105.25554 25.677204,86.031406 29.723616,68.024762 32.333913,57.308863 38.434132,46.668789 48.120918,40.508178 50.28689,39.063486 52.585715,37.827299 54.881458,36.596239 53.922028,30.982655 52.965332,25.368613 52.009354,19.75447 39.107391,25.844872 29.282369,37.270231 24.123653,50.272147 19.068121,63.131655 17.61059,77.080989 17.880311,90.779009 Z m 17.615564,57.550671 c 8.951019,12.19556 22.965956,20.54222 38.026463,23.03226 13.534458,2.2936 27.776462,0.3693 40.209002,-5.3551 7.66086,-3.56171 14.59743,-8.66295 20.09386,-15.01481 -2.27248,-4.258 -4.30242,-8.63192 -6.47703,-12.93738 -7.24423,8.43872 -17.81216,13.65038 -28.767305,15.58669 -10.763952,1.79563 -22.103508,1.5337 -32.549168,-1.48503 -6.961757,-2.0329 -13.484441,-5.3708 -19.025512,-10.10748 -2.053785,-1.74162 -3.846404,-3.75087 -5.532238,-5.83274 -2.102107,3.88936 -4.208143,7.77662 -6.312063,11.665 0.111334,0.1495 0.22266,0.29908 0.333991,0.44859 z M 108.64248,34.865729 c 10.27839,3.854323 18.74096,11.771787 24.16929,20.991036 3.22301,5.36365 5.3872,11.509148 6.69924,17.670632 2.45401,11.142708 2.71845,22.586802 0.77064,33.813053 -0.92108,5.30324 -2.45905,10.84196 -4.42663,15.91997 2.72588,3.71119 5.44608,7.42646 8.16958,11.13934 4.29559,-10.68749 6.18861,-22.14189 6.82507,-33.56966 0.86201,-14.659418 -0.0452,-29.622643 -4.74269,-43.649963 -3.81852,-11.757965 -10.72842,-22.657957 -20.42354,-30.589017 -4.36958,-3.671704 -9.43669,-6.420113 -14.64674,-8.757114 -1.02843,5.586223 -2.05036,11.173606 -3.07494,16.760545 0.22689,0.09039 0.45379,0.180799 0.68068,0.271192 z" />
    <path
       id="text8"
       style="font-size:9.03369px;font-family:Arial;-inkscape-font-specification:Arial;text-align:center;text-anchor:middle;stroke-width:0"
       d="m 181.1575,124.72577 c -0.005,4.4091 2.21937,9.27825 6.65174,10.89212 4.2594,1.3885 9.37342,-0.4506 11.55367,-4.35199 1.92766,-3.48127 1.91491,-7.78139 0.74448,-11.4989 -0.81474,-2.57164 -2.7196,-4.76313 -5.26245,-5.81523 -0.52309,0.0129 -0.32471,1.41866 -0.64171,1.98473 -0.38106,0.99504 0.21818,2.14336 1.32526,2.25051 3.41181,1.81317 4.03068,6.37457 2.79001,9.6857 -0.93074,2.6839 -3.64223,4.42286 -6.46962,4.56723 -3.63908,0.41267 -7.63183,-1.77509 -8.42769,-5.4458 -0.91066,-3.18924 -0.0104,-7.25564 3.17964,-8.86241 1.04737,-1.11832 0.17998,-2.66043 -0.0506,-3.9163 -2.30304,1.32017 -4.15512,3.41649 -4.83185,5.98274 -0.44695,1.4634 -0.60655,3.0034 -0.56081,4.5276 z m 0.084,37.05619 c 0.0117,4.96946 3.67689,10.20382 8.94963,10.72219 3.65595,0.36668 7.26515,-1.73976 8.92339,-4.92154 2.74346,-4.73461 2.37432,-11.06456 -0.84575,-15.4862 -1.75216,-2.38485 -4.7306,-3.76117 -7.71947,-3.52306 -5.20474,0.29818 -9.15484,5.25019 -9.23661,10.1969 -0.0899,1.00169 -0.12162,2.00683 -0.0711,3.01171 z m 0.0743,66.98777 c 0.0117,4.83692 3.46482,9.95884 8.56267,10.67351 3.84878,0.60826 7.6733,-1.68211 9.41069,-5.01592 2.47004,-4.4644 2.26164,-10.26631 -0.44127,-14.58279 -1.71852,-2.87534 -5.11983,-4.6551 -8.51657,-4.25071 -4.68625,0.38396 -8.24275,4.57504 -8.83966,8.99059 -0.24141,1.38163 -0.21976,2.78925 -0.17588,4.18532 z m 0.15805,34.21474 c -0.13404,1.0005 9.9e-4,2.31625 1.22124,2.57043 1.73522,0.79648 1.63076,3.0406 2.14847,4.61113 0.641,2.9478 3.39765,5.46215 6.56927,5.25054 2.56481,0.0261 4.56195,-1.95917 5.43875,-4.18104 0.71964,-1.69447 1.31152,-3.56686 1.24305,-5.39844 -0.29941,-0.79537 0.45058,-0.84748 1.10237,-0.50478 2.10109,0.36167 2.20712,-3.15664 0.43053,-3.59147 -0.989,-0.31504 -1.95286,-1.18977 -1.7172,-2.2307 -0.34071,-3.49819 -2.76877,-7.33731 -6.61512,-7.67064 -3.23761,-0.21238 -5.60094,2.64417 -6.47698,5.42348 -0.41296,1.5034 -1.08949,3.09136 -0.64719,4.65636 -0.68497,0.81262 -1.86429,-0.10646 -2.7718,-0.13753 0.0249,0.4009 0.0497,0.80177 0.0746,1.20268 z m -0.0816,-163.205761 c -0.35016,1.443671 1.14859,0.937291 2.09894,1.010141 5.65344,-0.0516 11.30911,-0.003 16.96364,-0.0308 -0.18192,-5.507763 0.92024,-11.319437 -1.34379,-16.549242 -1.58313,-2.964977 -6.76311,-2.97771 -8.02095,0.270474 -0.2537,0.878935 -1.28725,1.16141 -1.78486,0.305788 -0.83313,-1.160361 -2.25525,-2.099343 -3.7405,-1.545585 -3.0678,0.870804 -4.16848,4.377024 -4.05899,7.204485 -0.10832,3.10774 0.0859,6.242239 -0.11366,9.334549 z m 0.14417,86.497371 c 0.0692,5.9224 0.039,11.84634 0.0513,17.76942 0.99773,0.12951 2.39837,-0.20295 2.21319,-1.47093 -0.28124,-2.05194 -0.50567,-4.35744 0.5607,-6.24063 0.48531,-1.00209 1.78885,-0.3405 2.66643,-0.53091 4.51766,-0.005 9.03528,-0.0115 13.55292,-0.0165 0.39565,-1.36297 0.25412,-3.60997 -1.59141,-3.74074 -3.64088,0.48695 -7.33625,0.0983 -11.00115,0.23631 -1.45155,10e-4 -2.9031,0.003 -4.35466,0.005 0.009,-3.17039 -0.004,-6.34071 -0.063,-9.51063 -0.85654,0.9104 -2.33472,1.65958 -2.0556,3.11965 0.006,0.1265 0.0143,0.25313 0.0209,0.37971 z M 181.36617,17.807117 c 0.0915,5.964425 -0.0159,11.932145 0.10493,17.897158 1.00647,-0.02994 2.4075,-0.427166 2.1329,-1.706789 -0.2672,-1.905508 -0.39555,-4.011542 0.42104,-5.827546 0.32065,-1.074913 1.43575,-0.801544 2.32058,-0.812316 4.68844,-0.0057 9.37684,-0.01147 14.06523,-0.01719 0.39566,-1.362995 0.25413,-3.610019 -1.59139,-3.740737 -3.64089,0.486903 -7.33627,0.09827 -11.00116,0.236167 -1.45154,0.0014 -2.9031,0.0028 -4.35466,0.0057 0.008,-3.180102 -0.0142,-6.360118 -0.0328,-9.540163 -0.85114,0.925514 -2.36569,1.670831 -2.08531,3.142598 0.006,0.121049 0.0141,0.242226 0.0205,0.363361 z m 0.0775,37.285637 c 0.10624,2.667471 -0.1469,5.357404 0.15823,8.009519 0.40925,2.574744 2.47141,5.426739 5.39188,5.194484 2.65373,-0.364981 3.93204,-3.048354 4.64794,-5.286954 0.25575,-1.245556 1.14706,0.709562 1.74194,0.995523 2.19377,2.189092 4.59117,4.165267 7.04011,6.071005 -0.0413,-1.745208 0.66483,-4.149238 -1.12605,-5.301292 -2.07729,-1.40004 -4.14277,-2.967386 -5.77567,-4.884699 -1.76125,-2.035196 -2.42912,-5.371429 -0.62081,-7.571037 1.27604,-1.290666 3.20149,-0.309211 4.78048,-0.452951 1.09479,0.01006 2.73392,0.112883 2.95248,-1.290193 0.13454,-1.164233 -0.55834,-2.616933 -1.95698,-2.439155 -3.36113,0.369048 -6.76714,0.07635 -10.1467,0.176602 -2.36675,0.0028 -4.73352,0.0057 -7.1003,0.0086 0.003,2.25698 0.0104,4.513945 0.0134,6.770882 z m 1.72071,105.221906 c -0.21918,-4.35072 3.83151,-8.62497 8.36488,-8.10372 4.11513,-0.0606 7.51398,3.8027 7.35986,7.7535 0.34734,3.75821 -1.91387,8.18965 -6.01302,8.76765 -3.56275,0.76119 -7.69344,-0.96214 -9.01362,-4.42752 -0.52873,-1.26196 -0.69291,-2.63456 -0.6981,-3.98991 z m 0.0764,66.48961 c 0.0226,-4.38471 4.36576,-8.28343 8.84105,-7.60429 3.50716,0.19242 6.33117,3.17536 6.76439,6.51942 0.67262,3.75439 -0.86169,8.3785 -4.79676,9.7434 -2.60299,0.71505 -5.63046,0.5978 -7.79262,-1.18015 -2.25202,-1.62087 -3.13348,-4.41588 -3.00563,-7.06546 -0.003,-0.13766 -0.008,-0.27526 -0.0117,-0.41291 z m 0.13227,-169.357482 c 0.008,-1.809158 -0.0362,-3.618027 -0.0255,-5.427169 2.09052,-0.367531 4.9882,-0.779813 6.2595,1.351105 0.8213,1.900408 0.23694,4.02849 0.30457,6.025393 -0.0821,1.919605 -0.34719,4.502729 -2.60237,5.105137 -1.73846,0.475799 -3.38613,-0.91513 -3.65982,-2.561995 -0.43253,-1.460091 -0.31707,-2.993071 -0.27639,-4.492457 z m 0.0456,36.161583 c 0.14908,-2.178473 -0.23257,-4.797452 1.56303,-6.499625 1.41717,-1.344262 3.87755,-0.221871 4.16686,1.582057 0.8625,2.278074 0.0431,4.718125 0.52941,7.046717 0.18108,0.813389 -0.29977,1.663549 -1.24588,1.541859 -1.84822,0.31013 -4.55625,-0.0718 -4.89841,-2.282339 -0.0988,-0.454539 -0.1015,-0.925746 -0.11483,-1.388679 z m 2.21563,167.794639 c 0.80017,-1.7175 0.80472,-3.98021 2.67147,-5.04889 2.27764,-1.72616 5.93636,-0.82552 7.07117,1.78593 0.37499,1.03781 0.99349,2.04313 0.95706,3.11223 -0.32622,1.39454 -1.98211,0.77338 -2.98157,0.77048 -2.59918,-0.10569 -5.2483,0.10657 -7.78809,-0.52463 z m 0.0502,3.98186 c 1.10224,-0.26865 2.3269,0.076 3.47872,-0.083 2.54154,-0.003 5.08309,-0.005 7.62464,-0.009 -0.8281,1.3044 -0.82241,3.01459 -1.78008,4.30199 -1.22173,2.36065 -4.66824,3.07292 -6.7008,1.30128 -1.68741,-1.30896 -2.34062,-3.51266 -2.62248,-5.51106 z M 191.5374,93.192086 c 0.11601,-2.509334 -0.26164,-5.703614 2.12001,-7.358254 1.64453,-0.998297 3.63387,0.192459 4.25298,1.808638 0.99309,2.105639 0.38464,4.459051 0.50569,6.684959 0.0708,1.4954 -1.02041,2.79178 -2.5252,2.99528 -1.93096,0.50938 -4.43141,-0.64219 -4.41222,-2.816363 -0.0283,-0.438659 0.0407,-0.876257 0.0588,-1.31426 z m 5.07556,164.058304 c 0.48815,2.35452 -1.66642,-0.14111 0,0 z m 2.03003,5.43126 c -0.64358,1.10979 -1.21827,1.85012 -1.32912,0.10219 -0.50105,-0.77359 1.06602,-10e-4 1.32912,-0.10219 z" />
  </g>
</svg>
